<svg width="36" height="23" viewBox="0 0 36 23" fill="none" xmlns="http://www.w3.org/2000/svg">
<g clip-path="url(#clip0)">
<path fill-rule="evenodd" clip-rule="evenodd" d="M32.4711 18.0097C28.5447 20.9075 22.8528 22.4482 17.9508 22.4482C11.081 22.4482 4.89475 19.9086 0.213819 15.6819C-0.153642 15.3498 0.173715 14.8966 0.615788 15.154C5.66605 18.0927 11.912 19.8629 18.363 19.8629C22.7148 19.8629 27.4983 18.9601 31.9004 17.0929C32.5635 16.8104 33.1203 17.5294 32.4711 18.0097ZM34.1042 16.1445C34.6069 16.788 33.5455 19.4376 33.0718 20.6211C32.9281 20.9793 33.2359 21.1238 33.5605 20.8524C35.6664 19.0907 36.211 15.3983 35.7801 14.8649C35.3521 14.3361 31.67 13.8809 29.4223 15.459C29.0763 15.7014 29.136 16.0372 29.5193 15.9906C30.7849 15.8395 33.6024 15.5009 34.1042 16.1445Z" fill="#FF9900"/>
<path fill-rule="evenodd" clip-rule="evenodd" d="M28.42 11.3997L32.5068 0.997898C32.5926 0.787121 32.6364 0.63883 32.6364 0.552095C32.6364 0.403805 32.5497 0.329193 32.3762 0.329193H31.3363C31.1377 0.329193 31.0024 0.360903 30.9269 0.422457C30.8523 0.484944 30.7786 0.62111 30.704 0.831887L28.1961 8.03842L25.5959 0.831887C25.5213 0.62111 25.4476 0.484944 25.373 0.422457C25.2984 0.360903 25.1622 0.329193 24.9636 0.329193H23.8491C23.6756 0.329193 23.5889 0.403805 23.5889 0.552095C23.5889 0.63883 23.6318 0.787121 23.7185 0.997898L27.3036 9.83935L26.9511 10.7869C26.7403 11.3819 26.5052 11.7904 26.245 12.0133C25.9848 12.2362 25.6192 12.3472 25.1492 12.3472C24.9384 12.3472 24.7715 12.3342 24.6484 12.3099C24.5243 12.2857 24.4311 12.2726 24.3695 12.2726C24.1839 12.2726 24.0906 12.3901 24.0906 12.6252V13.1083C24.0906 13.2817 24.1214 13.4086 24.1839 13.4888C24.2455 13.569 24.3443 13.6287 24.4814 13.665C24.7901 13.7508 25.1436 13.7956 25.54 13.7956C26.246 13.7956 26.8186 13.61 27.2579 13.2379C27.699 12.8676 28.0861 12.254 28.42 11.3997Z" fill="#232F3E"/>
<path fill-rule="evenodd" clip-rule="evenodd" d="M13.1637 2.8857C12.9837 2.28508 12.7273 1.77399 12.3925 1.35337C12.0586 0.93275 11.6501 0.610056 11.167 0.387154C10.6848 0.164253 10.1457 0.0532684 9.55069 0.0532684C8.9939 0.0532684 8.44831 0.157724 7.9167 0.368502C7.38416 0.579279 6.8824 0.888916 6.41142 1.29741L6.31909 0.702387C6.28178 0.455237 6.13909 0.331196 5.891 0.331196H5.07401C4.82686 0.331196 4.70282 0.455237 4.70282 0.702387V13.2035C4.70282 13.4516 4.82686 13.5747 5.07401 13.5747H6.16986C6.41795 13.5747 6.54105 13.4507 6.54105 13.2035V8.85741C7.34592 9.58767 8.30561 9.95327 9.42012 9.95327C10.0263 9.95327 10.5775 9.83202 11.0728 9.5914C11.568 9.34985 11.9886 9.01223 12.3356 8.57855C12.6825 8.14581 12.952 7.6198 13.1432 6.99959C13.3354 6.38031 13.4314 5.68643 13.4314 4.91886C13.4333 4.16436 13.3428 3.48632 13.1637 2.8857ZM8.9939 8.46663C8.1508 8.46663 7.3338 8.17005 6.54199 7.57503V2.39327C7.32168 1.82342 8.15173 1.53897 9.03121 1.53897C10.7156 1.53897 11.5577 2.69731 11.5577 5.01213C11.5568 7.31575 10.7025 8.46663 8.9939 8.46663Z" fill="#232F3E"/>
<path fill-rule="evenodd" clip-rule="evenodd" d="M21.5399 0.782736C20.9822 0.30056 20.1158 0.0590057 18.9397 0.0590057C18.3578 0.0590057 17.7758 0.112166 17.1938 0.216622C16.6109 0.322011 16.1222 0.460975 15.7259 0.634446C15.5776 0.696933 15.4778 0.761285 15.4283 0.829368C15.3789 0.897451 15.3537 1.01869 15.3537 1.19123V1.69206C15.3537 1.91496 15.4339 2.02688 15.5953 2.02688C15.6447 2.02688 15.6979 2.01755 15.7538 1.9989C15.8098 1.98025 15.8564 1.96533 15.8928 1.95227C16.8469 1.66781 17.7562 1.52512 18.6236 1.52512C19.366 1.52512 19.8864 1.66129 20.1839 1.93455C20.4814 2.20688 20.6297 2.67693 20.6297 3.34564V4.57113C19.7633 4.36035 18.9826 4.2559 18.2888 4.2559C17.1994 4.2559 16.333 4.52543 15.6886 5.06357C15.045 5.6017 14.7223 6.32357 14.7223 7.2273C14.7223 8.0704 14.9825 8.74097 15.503 9.24274C16.0224 9.7445 16.7285 9.99445 17.6201 9.99445C18.1526 9.99445 18.6879 9.88906 19.227 9.67921C19.7661 9.46937 20.2576 9.17092 20.7034 8.78761L20.7966 9.40035C20.8339 9.63538 20.9701 9.75289 21.2061 9.75289H22.0044C22.2516 9.75289 22.3765 9.62885 22.3765 9.3817V3.0304C22.3756 2.01476 22.0967 1.26585 21.5399 0.782736ZM20.6297 7.65631C20.2212 7.96595 19.794 8.20097 19.3482 8.36232C18.9024 8.52367 18.4753 8.60388 18.0668 8.60388C17.5837 8.60388 17.2125 8.47704 16.9523 8.22336C16.6921 7.96968 16.5624 7.60781 16.5624 7.13683C16.5624 6.05963 17.2619 5.52056 18.6609 5.52056C18.9826 5.52056 19.3137 5.54294 19.6541 5.58585C19.9946 5.62968 20.3201 5.68844 20.6297 5.76211V7.65631Z" fill="#232F3E"/>
</g>
<defs>
<clipPath id="clip0">
<rect width="36" height="22.6286" fill="white"/>
</clipPath>
</defs>
</svg>
