<svg width="20" height="14" viewBox="0 0 20 14" fill="none" xmlns="http://www.w3.org/2000/svg">
<rect width="20" height="14" rx="2" fill="#016FD0"/>
<mask id="mask0" mask-type="alpha" maskUnits="userSpaceOnUse" x="8" y="1" width="12" height="12">
<path fill-rule="evenodd" clip-rule="evenodd" d="M8 1H20V13H8V1Z" fill="#016FD0"/>
</mask>
<g mask="url(#mask0)">
<path fill-rule="evenodd" clip-rule="evenodd" d="M8 3C8 1.89543 8.89543 1 10 1H18C19.1046 1 20 1.89543 20 3V11C20 12.1046 19.1046 13 18 13H10C8.89543 13 8 12.1046 8 11V3Z" fill="#016FD0"/>
<path fill-rule="evenodd" clip-rule="evenodd" d="M12.3468 11.1013V6.80132L20 6.80835V7.99611L19.1153 8.94116L20 9.89533V11.1081H18.5877L17.8372 10.28L17.0919 11.1115L12.3468 11.1013Z" fill="white"/>
<path fill-rule="evenodd" clip-rule="evenodd" d="M12.8581 10.6297V7.27449H15.7031V8.04741H13.7794V8.57215H15.6573V9.3323H13.7794V9.84767H15.7031V10.6297H12.8581Z" fill="#016FD0"/>
<path fill-rule="evenodd" clip-rule="evenodd" d="M15.689 10.6297L17.263 8.95024L15.689 7.27472H16.9073L17.8692 8.338L18.8338 7.27472H20V7.30102L18.4594 8.95024L20 10.5823V10.6297H18.8221L17.8432 9.55571L16.8742 10.6297H15.689Z" fill="#016FD0"/>
<path fill-rule="evenodd" clip-rule="evenodd" d="M12.7039 2.98489H14.5487L15.1966 4.45625V2.98489H17.4742L17.8669 4.08724L18.2609 2.98489H20V7.28463H10.8093L12.7039 2.98489Z" fill="white"/>
<path fill-rule="evenodd" clip-rule="evenodd" d="M13.0534 3.45209L11.5646 6.80443H12.5856L12.8664 6.13308H14.3883L14.669 6.80443H15.7153L14.2328 3.45209H13.0534ZM13.1812 5.38073L13.6276 4.31355L14.0737 5.38073H13.1812Z" fill="#016FD0"/>
<path fill-rule="evenodd" clip-rule="evenodd" d="M15.7016 6.8039V3.45155L17.1367 3.4565L17.8753 5.51744L18.6187 3.45155H20V6.8039L19.1112 6.81171V4.50884L18.2721 6.8039H17.4607L16.6042 4.50103V6.8039H15.7016Z" fill="#016FD0"/>
</g>
</svg>
