<svg width="16" height="16" viewBox="0 0 16 16" fill="none" xmlns="http://www.w3.org/2000/svg">
<path d="M2 3V13C2.0003 13.2651 2.10576 13.5193 2.29323 13.7068C2.4807 13.8942 2.73488 13.9997 3 14H13C13.2651 13.9997 13.5193 13.8942 13.7068 13.7068C13.8942 13.5193 13.9997 13.2651 14 13V3C13.9997 2.73488 13.8942 2.4807 13.7068 2.29323C13.5193 2.10576 13.2651 2.0003 13 2H3C2.73488 2.0003 2.4807 2.10576 2.29323 2.29323C2.10576 2.4807 2.0003 2.73488 2 3ZM5.89645 9.39642L8.54288 6.75H6.75C6.61739 6.75 6.49021 6.69732 6.39645 6.60355C6.30268 6.50979 6.25 6.38261 6.25 6.25C6.25 6.11739 6.30268 5.99021 6.39645 5.89645C6.49021 5.80268 6.61739 5.75 6.75 5.75H9.75C9.75374 5.75 9.75735 5.75049 9.76108 5.75055C9.77373 5.75085 9.78639 5.75125 9.79901 5.75247C9.80768 5.75333 9.8161 5.75488 9.82464 5.75616C9.83224 5.75732 9.83986 5.75815 9.84742 5.75964C9.85657 5.76144 9.86543 5.76395 9.87439 5.76624C9.88122 5.76798 9.88811 5.76947 9.89488 5.77149C9.90346 5.77411 9.91176 5.77728 9.92015 5.78034C9.92717 5.78287 9.93424 5.78516 9.94116 5.78803C9.94884 5.7912 9.95621 5.79492 9.96368 5.79846C9.97101 5.80194 9.97841 5.80518 9.98559 5.80902C9.99261 5.81281 9.99928 5.81708 10.0061 5.82114C10.0133 5.82544 10.0206 5.82953 10.0276 5.83423C10.0349 5.83911 10.0418 5.84454 10.0488 5.84979C10.0549 5.85431 10.0611 5.85852 10.067 5.86337C10.0784 5.87274 10.0892 5.88269 10.0998 5.89301C10.101 5.89423 10.1023 5.8952 10.1035 5.89642C10.1046 5.89746 10.1055 5.89862 10.1065 5.89969C10.117 5.91037 10.1271 5.92142 10.1366 5.93298C10.1416 5.93909 10.1459 5.9455 10.1506 5.95175C10.1557 5.95856 10.161 5.96524 10.1657 5.97232C10.1706 5.97958 10.1748 5.98715 10.1793 5.9946C10.1832 6.00116 10.1873 6.00754 10.1909 6.01428C10.195 6.02185 10.1984 6.02963 10.202 6.03735C10.2054 6.04443 10.2089 6.05139 10.2119 6.05863C10.215 6.0661 10.2175 6.07376 10.2202 6.08136C10.223 6.08917 10.226 6.09683 10.2284 6.1048C10.2307 6.11249 10.2324 6.12027 10.2344 6.12802C10.2364 6.13608 10.2387 6.14404 10.2403 6.15222C10.2421 6.16129 10.2432 6.17044 10.2445 6.17957C10.2455 6.18659 10.2468 6.19348 10.2475 6.20059C10.2491 6.21707 10.25 6.23361 10.25 6.25015V9.25C10.25 9.38261 10.1973 9.50979 10.1036 9.60355C10.0098 9.69732 9.88261 9.75 9.75 9.75C9.61739 9.75 9.49022 9.69732 9.39645 9.60355C9.30268 9.50979 9.25 9.38261 9.25 9.25V7.45713L6.60355 10.1036C6.50977 10.1973 6.38259 10.25 6.24998 10.25C6.11737 10.25 5.99019 10.1973 5.89643 10.1035C5.80266 10.0098 5.74998 9.88259 5.74999 9.74998C5.75 9.61737 5.80268 9.49019 5.89646 9.39643L5.89645 9.39642Z" fill="#337FE6"/>
</svg>
