<svg width="16" height="16" viewBox="0 0 16 16" fill="none" xmlns="http://www.w3.org/2000/svg">
<circle cx="8" cy="8" r="8" fill="#AE285D"/>
<path d="M8.00314 3.20001C8.49287 4.04132 8.98685 4.88016 9.47128 5.72465C8.68827 7.10587 7.91657 8.49381 7.10706 9.85984C6.79647 10.3842 6.49436 10.9135 6.1873 11.4396C5.19158 11.4456 4.19586 11.4453 3.20013 11.4439C3.23052 11.3757 3.26056 11.3071 3.2973 11.2421C4.86509 8.56094 6.43888 5.8833 8.00314 3.20001Z" fill="white"/>
<path d="M8.00327 8.32912C9.00252 8.32877 10.0018 8.3217 11.001 8.33831C11.5961 9.37573 12.2102 10.4018 12.7999 11.4421C11.8007 11.447 10.8017 11.4431 9.80249 11.4424C9.20781 10.4015 8.58664 9.37644 8.00327 8.32912Z" fill="white"/>
</svg>
