<svg width="50" height="50" viewBox="0 0 50 50" fill="none" xmlns="http://www.w3.org/2000/svg">
<g filter="url(#filter0_d)">
<rect x="9" y="5" width="32" height="32" rx="16" fill="#FEFFFF"/>
<rect x="9" y="5" width="32" height="32" rx="16" stroke="#3483E4"/>
</g>
<path d="M16.6986 24.9437H21.3408C21.6789 24.9437 21.9606 24.6732 21.9606 24.3239C21.9606 23.9859 21.6789 23.7042 21.3408 23.7042H17.3859V21.5859H20.7775C21.1155 21.5859 21.3972 21.3155 21.3972 20.9775C21.3972 20.6282 21.1155 20.3465 20.7775 20.3465H17.3859V18.2958H21.2845C21.6225 18.2958 21.9042 18.0254 21.9042 17.6761C21.9042 17.338 21.6225 17.0563 21.2845 17.0563H16.6986C16.3042 17.0563 16 17.3606 16 17.7549V24.2451C16 24.6394 16.3042 24.9437 16.6986 24.9437Z" fill="#3483E4"/>
<path d="M23.5484 24.3239C23.5484 24.707 23.8414 25 24.2245 25C24.6076 25 24.9118 24.707 24.9118 24.3239V19.6028L26.8273 22.4761C26.9738 22.7014 27.154 22.8366 27.4019 22.8366C27.6611 22.8366 27.8414 22.7014 27.9879 22.4761L29.9146 19.5803V24.3127C29.9146 24.6845 30.2301 25 30.6019 25C30.9963 25 31.3005 24.6958 31.3005 24.3127V17.7099C31.3005 17.3268 30.9963 17.0113 30.6019 17.0113H30.4555C30.1738 17.0113 29.971 17.1352 29.8245 17.3718L27.4245 21.1239L25.0357 17.3831C24.9005 17.169 24.6977 17.0113 24.3935 17.0113H24.247C23.8526 17.0113 23.5484 17.3268 23.5484 17.7099V24.3239Z" fill="#3483E4"/>
<path d="M33.4094 24.3127C33.4094 24.6958 33.7136 25 34.108 25C34.4911 25 34.7953 24.6958 34.7953 24.3127V17.6873C34.7953 17.3042 34.4911 17 34.108 17C33.7136 17 33.4094 17.3042 33.4094 17.6873V24.3127Z" fill="#3483E4"/>
<defs>
<filter id="filter0_d" x="0.5" y="0.5" width="49" height="49" filterUnits="userSpaceOnUse" color-interpolation-filters="sRGB">
<feFlood flood-opacity="0" result="BackgroundImageFix"/>
<feColorMatrix in="SourceAlpha" type="matrix" values="0 0 0 0 0 0 0 0 0 0 0 0 0 0 0 0 0 0 127 0"/>
<feOffset dy="4"/>
<feGaussianBlur stdDeviation="4"/>
<feColorMatrix type="matrix" values="0 0 0 0 0.203922 0 0 0 0 0.513726 0 0 0 0 0.894118 0 0 0 0.21 0"/>
<feBlend mode="normal" in2="BackgroundImageFix" result="effect1_dropShadow"/>
<feBlend mode="normal" in="SourceGraphic" in2="effect1_dropShadow" result="shape"/>
</filter>
</defs>
</svg>
