<svg width="50" height="50" viewBox="0 0 50 50" fill="none" xmlns="http://www.w3.org/2000/svg">
<g filter="url(#filter0_d)">
<rect x="9" y="5" width="32" height="32" rx="16" fill="#FEFFFF"/>
<rect x="9" y="5" width="32" height="32" rx="16" stroke="#3483E4"/>
</g>
<path d="M31.1875 17.625H18.8125C18.5018 17.625 18.25 17.8768 18.25 18.1875V20.4375C18.25 20.7482 18.5018 21 18.8125 21H31.1875C31.4982 21 31.75 20.7482 31.75 20.4375V18.1875C31.75 17.8768 31.4982 17.625 31.1875 17.625Z" stroke="#3483E4" stroke-width="1.125" stroke-linecap="round" stroke-linejoin="round"/>
<path d="M30.625 21V26.0625C30.625 26.2117 30.5657 26.3548 30.4602 26.4602C30.3548 26.5657 30.2117 26.625 30.0625 26.625H19.9375C19.7883 26.625 19.6452 26.5657 19.5398 26.4602C19.4343 26.3548 19.375 26.2117 19.375 26.0625V21" stroke="#3483E4" stroke-width="1.125" stroke-linecap="round" stroke-linejoin="round"/>
<path d="M25 17.625V26.625" stroke="#3483E4" stroke-width="1.125" stroke-linecap="round" stroke-linejoin="round"/>
<path d="M28.182 16.8295C27.3865 17.625 25 17.625 25 17.625C25 17.625 25 15.2385 25.7955 14.443C26.112 14.1269 26.5412 13.9493 26.9885 13.9495C27.4359 13.9496 27.865 14.1274 28.1813 14.4437C28.4977 14.7601 28.6754 15.1891 28.6756 15.6365C28.6757 16.0839 28.4982 16.513 28.182 16.8295V16.8295Z" stroke="#3483E4" stroke-width="1.125" stroke-linecap="round" stroke-linejoin="round"/>
<path d="M21.818 16.8295C22.6135 17.625 25 17.625 25 17.625C25 17.625 25 15.2385 24.2045 14.443C23.888 14.1269 23.4588 13.9493 23.0115 13.9495C22.5641 13.9496 22.135 14.1274 21.8187 14.4437C21.5023 14.7601 21.3246 15.1891 21.3244 15.6365C21.3243 16.0839 21.5018 16.513 21.818 16.8295V16.8295Z" stroke="#3483E4" stroke-width="1.125" stroke-linecap="round" stroke-linejoin="round"/>
<path opacity="0.2" d="M30.625 21V26.0625C30.625 26.2117 30.5657 26.3548 30.4602 26.4602C30.3548 26.5657 30.2117 26.625 30.0625 26.625H19.9375C19.7883 26.625 19.6452 26.5657 19.5398 26.4602C19.4343 26.3548 19.375 26.2117 19.375 26.0625V21H30.625Z" fill="#3483E4"/>
<defs>
<filter id="filter0_d" x="0.5" y="0.5" width="49" height="49" filterUnits="userSpaceOnUse" color-interpolation-filters="sRGB">
<feFlood flood-opacity="0" result="BackgroundImageFix"/>
<feColorMatrix in="SourceAlpha" type="matrix" values="0 0 0 0 0 0 0 0 0 0 0 0 0 0 0 0 0 0 127 0"/>
<feOffset dy="4"/>
<feGaussianBlur stdDeviation="4"/>
<feColorMatrix type="matrix" values="0 0 0 0 0.203922 0 0 0 0 0.513726 0 0 0 0 0.894118 0 0 0 0.21 0"/>
<feBlend mode="normal" in2="BackgroundImageFix" result="effect1_dropShadow"/>
<feBlend mode="normal" in="SourceGraphic" in2="effect1_dropShadow" result="shape"/>
</filter>
</defs>
</svg>
