<svg width="15" height="16" viewBox="0 0 15 16" fill="none" xmlns="http://www.w3.org/2000/svg">
<path d="M4.18118 3.47539C7.8347 -0.151274 12.267 -1.09251 14.0407 1.37942C15.8144 3.85135 14.2555 8.84757 10.602 12.4742C6.94851 16.1277 2.51623 17.0676 0.715655 14.5689C-1.02987 12.0714 0.529015 7.1007 4.18118 3.47539" fill="#F06321"/>
<path d="M6.59894 1.5407C6.19613 1.8361 5.79332 2.18521 5.3905 2.56251C2.19351 5.7313 0.849449 10.083 2.4352 12.2596C4.0733 14.4347 7.99535 13.6291 11.2729 10.4321C13.0466 8.71346 14.2282 6.72491 14.7116 4.87197C14.8459 3.50241 14.6579 2.29262 14.0402 1.37958C12.6438 -0.553922 9.63482 -0.394141 6.59894 1.5407" fill="#AE282E"/>
<path d="M11.2192 1.94344V2.024C11.1924 2.48052 10.9238 3.04446 10.4405 3.52783C9.71539 4.22604 8.74864 4.49458 8.34448 4.09311C7.88796 3.66345 8.15786 2.72221 8.88291 1.97029C9.63484 1.24523 10.6016 1.00354 11.0044 1.43321C11.1387 1.56748 11.2192 1.7286 11.2192 1.94344V1.94344ZM8.42639 14.2735C6.70637 15.5625 4.93399 16.2084 3.21399 15.9398C3.93905 15.9667 4.53118 15.1597 5.01455 14.0856C5.49793 12.9845 5.76647 11.9641 6.00815 10.996C6.35726 9.4653 6.38412 8.39113 6.19614 8.14944C5.90074 7.77214 5.25624 7.85405 4.50298 8.28371C4.12702 8.49855 3.64365 8.36427 4.20893 7.66607C4.79972 6.96786 7.08233 5.30155 7.88795 5.03301C8.80234 4.79132 9.82281 5.14043 9.4737 6.13404C9.23068 6.8591 6.06188 15.1329 8.42639 14.2735" fill="white"/>
</svg>
