<svg width="16" height="16" viewBox="0 0 16 16" fill="none" xmlns="http://www.w3.org/2000/svg">
<circle cx="8" cy="8" r="8" fill="#003874"/>
<path fill-rule="evenodd" clip-rule="evenodd" d="M1.6 7.90444C1.6 4.86464 4.46525 2.39999 8.00012 2.39999C11.535 2.39999 14.4 4.86464 14.4 7.90444C14.4 10.9442 11.5347 13.4089 8.00012 13.4089C4.46549 13.4089 1.6 10.9446 1.6 7.90444Z" fill="#003874"/>
<path fill-rule="evenodd" clip-rule="evenodd" d="M7.22297 4.16796L8.70991 3.67667L8.71723 11.7147L7.21772 12.2171L7.22309 4.16796H7.22297Z" fill="#ED1C24"/>
<path fill-rule="evenodd" clip-rule="evenodd" d="M12.8132 8.45865C12.6737 9.60846 12.0287 10.7701 10.6204 10.7723C9.79819 10.7738 9.15591 10.2108 8.71112 9.52204V8.72425C9.26772 9.0006 9.78794 9.2972 10.4191 9.30624C11.1966 9.31771 11.8997 9.01878 12.1905 8.45853H12.8133L12.8132 8.45865ZM8.10534 9.18064C7.45927 9.95938 6.83493 10.7549 5.6651 10.7549C4.01277 10.7549 3.22902 9.15732 3.22902 7.82174C3.22902 6.53839 3.84152 5.01923 5.45125 5.01923C6.14944 5.01923 6.8215 5.44619 7.22211 5.89782L7.22089 6.98721C6.8862 6.76188 6.1365 6.54083 5.64704 6.5329C4.62625 6.51581 3.72629 6.95828 3.74192 7.96589C3.75254 8.65956 4.43986 9.13108 5.12364 9.13108C6.17092 9.13108 6.80539 8.17437 7.33562 7.44823C7.54821 7.17105 7.75837 6.892 7.96607 6.61114C8.55501 5.78821 9.23647 5.03692 10.4063 5.03692C11.7844 5.03692 12.558 6.14768 12.7767 7.29114H12.1542C11.904 6.92032 11.4227 6.69341 10.9486 6.69341C9.86594 6.69341 9.21902 7.68942 8.67756 8.42276L8.10387 9.18051" fill="white"/>
</svg>
