<svg width="20" height="14" viewBox="0 0 20 14" fill="none" xmlns="http://www.w3.org/2000/svg">
<rect width="20" height="14" rx="2" fill="#272624"/>
<path d="M11.8665 4.2484H8.53416V9.75118H11.8665V4.2484Z" fill="#FF5F00"/>
<path d="M8.87791 7.00012C8.8775 6.47025 8.9963 5.94723 9.22534 5.47064C9.45437 4.99404 9.78764 4.57637 10.1999 4.24922C9.68929 3.8435 9.07608 3.59121 8.43035 3.52118C7.78463 3.45115 7.13244 3.56621 6.54833 3.85319C5.96423 4.14018 5.47176 4.58753 5.12722 5.1441C4.78269 5.70067 4.59998 6.34402 4.59998 7.00061C4.59998 7.6572 4.78269 8.30055 5.12722 8.85712C5.47176 9.41369 5.96423 9.86103 6.54833 10.148C7.13244 10.435 7.78463 10.5501 8.43035 10.48C9.07608 10.41 9.68929 10.1577 10.1999 9.752C9.78751 9.42475 9.45417 9.00692 9.22513 8.53014C8.99609 8.05337 8.87735 7.53016 8.87791 7.00012V7.00012Z" fill="#EB001B"/>
<path d="M15.4693 9.16891V9.05615H15.5174V9.03282H15.403V9.05615H15.4481V9.16891H15.4693ZM15.6914 9.16891V9.03282H15.6568L15.6164 9.13003L15.576 9.03282H15.5414V9.16891H15.5664V9.06587L15.6039 9.15433H15.6299L15.6674 9.06587V9.16891H15.6914Z" fill="#F79E1B"/>
<path d="M15.8 7.00028C15.8 7.65692 15.6172 8.30031 15.2726 8.8569C14.928 9.41349 14.4355 9.86082 13.8513 10.1478C13.2671 10.4347 12.6149 10.5497 11.9691 10.4796C11.3234 10.4094 10.7101 10.157 10.1996 9.75118C10.6117 9.42374 10.9448 9.00595 11.1739 8.52933C11.403 8.05271 11.5221 7.52971 11.5221 6.99979C11.5221 6.46987 11.403 5.94687 11.1739 5.47025C10.9448 4.99363 10.6117 4.57584 10.1996 4.2484C10.7101 3.84256 11.3234 3.59015 11.9691 3.52002C12.6149 3.44989 13.2671 3.56487 13.8513 3.85181C14.4355 4.13876 14.928 4.5861 15.2726 5.14269C15.6172 5.69928 15.8 6.34267 15.8 6.99931V7.00028Z" fill="#F79E1B"/>
</svg>
