<svg width="50" height="50" viewBox="0 0 50 50" fill="none" xmlns="http://www.w3.org/2000/svg">
<g filter="url(#filter0_d)">
<rect x="9" y="5" width="32" height="32" rx="16" fill="#FEFFFF"/>
<rect x="9" y="5" width="32" height="32" rx="16" stroke="#3483E4"/>
</g>
<path opacity="0.2" d="M18.8125 24.375V17.0625C18.8125 16.7641 18.931 16.478 19.142 16.267C19.353 16.056 19.6391 15.9375 19.9375 15.9375H30.0625C30.3609 15.9375 30.647 16.056 30.858 16.267C31.069 16.478 31.1875 16.7641 31.1875 17.0625V24.375H18.8125Z" fill="#3483E4"/>
<path d="M18.8125 24.375V17.0625C18.8125 16.7641 18.931 16.478 19.142 16.267C19.353 16.056 19.6391 15.9375 19.9375 15.9375H30.0625C30.3609 15.9375 30.647 16.056 30.858 16.267C31.069 16.478 31.1875 16.7641 31.1875 17.0625V24.375" stroke="#3483E4" stroke-width="1.125" stroke-linecap="round" stroke-linejoin="round"/>
<path d="M17.6875 24.375H32.3125V25.5C32.3125 25.7984 32.194 26.0845 31.983 26.2955C31.772 26.5065 31.4859 26.625 31.1875 26.625H18.8125C18.5141 26.625 18.228 26.5065 18.017 26.2955C17.806 26.0845 17.6875 25.7984 17.6875 25.5V24.375Z" stroke="#3483E4" stroke-width="1.125" stroke-linecap="round" stroke-linejoin="round"/>
<path d="M26.125 18.1875H23.875" stroke="#3483E4" stroke-width="1.125" stroke-linecap="round" stroke-linejoin="round"/>
<defs>
<filter id="filter0_d" x="0.5" y="0.5" width="49" height="49" filterUnits="userSpaceOnUse" color-interpolation-filters="sRGB">
<feFlood flood-opacity="0" result="BackgroundImageFix"/>
<feColorMatrix in="SourceAlpha" type="matrix" values="0 0 0 0 0 0 0 0 0 0 0 0 0 0 0 0 0 0 127 0"/>
<feOffset dy="4"/>
<feGaussianBlur stdDeviation="4"/>
<feColorMatrix type="matrix" values="0 0 0 0 0.203922 0 0 0 0 0.513726 0 0 0 0 0.894118 0 0 0 0.21 0"/>
<feBlend mode="normal" in2="BackgroundImageFix" result="effect1_dropShadow"/>
<feBlend mode="normal" in="SourceGraphic" in2="effect1_dropShadow" result="shape"/>
</filter>
</defs>
</svg>
