<svg width="50" height="50" viewBox="0 0 50 50" fill="none" xmlns="http://www.w3.org/2000/svg">
<g filter="url(#filter0_d)">
<rect x="9" y="5" width="32" height="32" rx="16" fill="#FEFFFF"/>
<rect x="9" y="5" width="32" height="32" rx="16" stroke="#3483E4"/>
</g>
<path opacity="0.2" d="M25 14.25C23.665 14.25 22.3599 14.6459 21.2499 15.3876C20.1399 16.1293 19.2747 17.1835 18.7638 18.4169C18.2529 19.6503 18.1193 21.0075 18.3797 22.3169C18.6402 23.6262 19.283 24.829 20.227 25.773C21.171 26.717 22.3738 27.3598 23.6831 27.6203C24.9925 27.8808 26.3497 27.7471 27.5831 27.2362C28.8165 26.7253 29.8707 25.8601 30.6124 24.7501C31.3541 23.6401 31.75 22.335 31.75 21C31.75 20.1136 31.5754 19.2358 31.2362 18.4169C30.897 17.5979 30.3998 16.8538 29.773 16.227C29.1462 15.6002 28.4021 15.103 27.5831 14.7638C26.7642 14.4246 25.8864 14.25 25 14.25V14.25ZM25 24.9375C24.2212 24.9375 23.46 24.7066 22.8124 24.2739C22.1649 23.8413 21.6602 23.2263 21.3622 22.5068C21.0642 21.7873 20.9862 20.9956 21.1382 20.2318C21.2901 19.468 21.6651 18.7664 22.2158 18.2158C22.7664 17.6651 23.468 17.2901 24.2318 17.1382C24.9956 16.9862 25.7873 17.0642 26.5068 17.3622C27.2263 17.6602 27.8413 18.1649 28.2739 18.8124C28.7066 19.46 28.9375 20.2212 28.9375 21C28.9375 22.0443 28.5227 23.0458 27.7842 23.7842C27.0458 24.5227 26.0443 24.9375 25 24.9375Z" fill="#3483E4"/>
<path d="M25 27.75C28.7279 27.75 31.75 24.7279 31.75 21C31.75 17.2721 28.7279 14.25 25 14.25C21.2721 14.25 18.25 17.2721 18.25 21C18.25 24.7279 21.2721 27.75 25 27.75Z" stroke="#3483E4" stroke-width="1.125" stroke-linecap="round" stroke-linejoin="round"/>
<path d="M25 24.9375C27.1746 24.9375 28.9375 23.1746 28.9375 21C28.9375 18.8254 27.1746 17.0625 25 17.0625C22.8254 17.0625 21.0625 18.8254 21.0625 21C21.0625 23.1746 22.8254 24.9375 25 24.9375Z" stroke="#3483E4" stroke-width="1.125" stroke-linecap="round" stroke-linejoin="round"/>
<path d="M25 17.0625V14.25" stroke="#3483E4" stroke-width="1.125" stroke-linecap="round" stroke-linejoin="round"/>
<path d="M22.2158 18.2158L20.227 16.2271" stroke="#3483E4" stroke-width="1.125" stroke-linecap="round" stroke-linejoin="round"/>
<path d="M21.0625 21H18.25" stroke="#3483E4" stroke-width="1.125" stroke-linecap="round" stroke-linejoin="round"/>
<path d="M22.2158 23.7842L20.227 25.7729" stroke="#3483E4" stroke-width="1.125" stroke-linecap="round" stroke-linejoin="round"/>
<path d="M25 24.9375V27.75" stroke="#3483E4" stroke-width="1.125" stroke-linecap="round" stroke-linejoin="round"/>
<path d="M27.7842 23.7842L29.773 25.7729" stroke="#3483E4" stroke-width="1.125" stroke-linecap="round" stroke-linejoin="round"/>
<path d="M28.9375 21H31.75" stroke="#3483E4" stroke-width="1.125" stroke-linecap="round" stroke-linejoin="round"/>
<path d="M27.7842 18.2158L29.773 16.2271" stroke="#3483E4" stroke-width="1.125" stroke-linecap="round" stroke-linejoin="round"/>
<defs>
<filter id="filter0_d" x="0.5" y="0.5" width="49" height="49" filterUnits="userSpaceOnUse" color-interpolation-filters="sRGB">
<feFlood flood-opacity="0" result="BackgroundImageFix"/>
<feColorMatrix in="SourceAlpha" type="matrix" values="0 0 0 0 0 0 0 0 0 0 0 0 0 0 0 0 0 0 127 0"/>
<feOffset dy="4"/>
<feGaussianBlur stdDeviation="4"/>
<feColorMatrix type="matrix" values="0 0 0 0 0.203922 0 0 0 0 0.513726 0 0 0 0 0.894118 0 0 0 0.21 0"/>
<feBlend mode="normal" in2="BackgroundImageFix" result="effect1_dropShadow"/>
<feBlend mode="normal" in="SourceGraphic" in2="effect1_dropShadow" result="shape"/>
</filter>
</defs>
</svg>
