<svg width="16" height="16" viewBox="0 0 16 16" fill="none" xmlns="http://www.w3.org/2000/svg">
<circle cx="8" cy="8" r="8" fill="#9E173B"/>
<path fill-rule="evenodd" clip-rule="evenodd" d="M9.61035 5.08897H11.3134V12H9.61035V10.0432C8.11029 10.5915 6.70756 10.64 5.4189 9.37731C4.88489 8.82195 4.58387 8.06509 4.70983 6.74626C4.73141 6.54433 4.63694 5.60778 4.39999 5.08721H5.91261C6.62124 6.21225 5.6924 7.64823 6.77825 8.56496C8.25783 9.52287 9.54781 8.37735 9.61035 7.34325V5.08897ZM7.91364 5.80222C8.72005 5.80222 9.37165 6.4547 9.37165 7.24547C9.37165 8.04373 8.72005 8.68982 7.91364 8.68982C7.10724 8.68982 6.44882 8.04373 6.44882 7.24547C6.44882 6.4547 7.10724 5.80222 7.91364 5.80222" fill="#FAB90C"/>
</svg>
