<svg width="12" height="12" viewBox="0 0 12 12" fill="none" xmlns="http://www.w3.org/2000/svg">
<path d="M0 11.9999H5.45453V6.5453H0V11.9999ZM1.09082 7.6363H4.36359V10.9006H1.09082V7.6363Z" fill="#3483E4"/>
<path d="M3.27269 8.72713H2.18181V9.81816H3.27269V8.72713Z" fill="#3483E4"/>
<path d="M9.8182 10.909H8.72705V11.9999H9.8182V10.909Z" fill="#3483E4"/>
<path d="M12 10.909H10.9089V11.9999H12V10.909Z" fill="#3483E4"/>
<path d="M10.909 7.6363H9.81819V6.5453H6.54533V11.9999H7.63634V8.72713H8.72707V9.81816H11.9999V6.5453H10.909V7.6363Z" fill="#3483E4"/>
<path d="M0 5.45465H5.45453V0H0V5.45465ZM1.09082 1.09082H4.36359V4.36359H1.09082V1.09082Z" fill="#3483E4"/>
<path d="M3.27269 2.18192H2.18181V3.27289H3.27269V2.18192Z" fill="#3483E4"/>
<path d="M6.54533 0V5.45465H12V0H6.54533ZM10.909 4.36359H7.63634V1.09082H10.909V4.36359V4.36359Z" fill="#3483E4"/>
<path d="M9.8182 2.18192H8.72705V3.27289H9.8182V2.18192Z" fill="#3483E4"/>
</svg>
