<svg width="16" height="16" viewBox="0 0 16 16" fill="none" xmlns="http://www.w3.org/2000/svg">
<circle cx="8" cy="8" r="8" fill="#1166DD"/>
<g clip-path="url(#clip0)">
<path d="M7.69292 12.7808C6.45415 12.701 5.29497 12.1426 4.46054 11.2235C3.62612 10.3045 3.18188 9.09689 3.22179 7.8562C3.26169 6.6155 3.7826 5.43897 4.67436 4.57544C5.56611 3.71191 6.75878 3.22908 8.00012 3.22908C9.24145 3.22908 10.4341 3.71191 11.3259 4.57544C12.2176 5.43897 12.7385 6.6155 12.7784 7.8562C12.8183 9.09689 12.3741 10.3045 11.5397 11.2235C10.7053 12.1426 9.54609 12.701 8.30732 12.7808V8.864C8.49617 8.79216 8.65387 8.6564 8.753 8.48033C8.85212 8.30426 8.88641 8.09901 8.84988 7.90028C8.81336 7.70156 8.70834 7.52191 8.55309 7.39259C8.39784 7.26327 8.20217 7.19246 8.00012 7.19246C7.79806 7.19246 7.60239 7.26327 7.44714 7.39259C7.29189 7.52191 7.18687 7.70156 7.15035 7.90028C7.11383 8.09901 7.14811 8.30426 7.24724 8.48033C7.34636 8.6564 7.50406 8.79216 7.69292 8.864" fill="white"/>
</g>
<defs>
<clipPath id="clip0">
<rect width="9.6" height="9.6" fill="white" transform="translate(3.20013 3.2)"/>
</clipPath>
</defs>
</svg>
