<svg width="41" height="13" viewBox="0 0 41 13" fill="none" xmlns="http://www.w3.org/2000/svg">
<path d="M17.4059 12.8121H14.152L16.1872 0.227795H19.4409L17.4059 12.8121Z" fill="#1A1F71"/>
<path d="M29.2017 0.535765C28.5599 0.281139 27.5419 0 26.2832 0C23.0698 0 20.807 1.71352 20.7932 4.16334C20.7665 5.97082 22.4133 6.97473 23.6449 7.5774C24.9038 8.19324 25.3318 8.59519 25.3318 9.14413C25.3189 9.98719 24.3145 10.3758 23.3777 10.3758C22.0786 10.3758 21.3825 10.1754 20.3247 9.70641L19.8962 9.50534L19.4408 12.3302C20.204 12.6779 21.6101 12.9865 23.0698 13C26.4841 13 28.7068 11.313 28.7332 8.70231C28.7462 7.26975 27.8766 6.17206 26.0019 5.27509C24.8638 4.69929 24.1668 4.31103 24.1668 3.72189C24.1802 3.1863 24.7563 2.63772 26.041 2.63772C27.0988 2.61085 27.8761 2.86512 28.4648 3.11957L28.7592 3.2532L29.2017 0.535765V0.535765Z" fill="#1A1F71"/>
<path d="M33.5269 8.35395C33.7949 7.631 34.8261 4.83295 34.8261 4.83295C34.8125 4.85982 35.0935 4.09666 35.2542 3.62815L35.4816 4.71249C35.4816 4.71249 36.0978 7.72477 36.2316 8.35395C35.723 8.35395 34.1697 8.35395 33.5269 8.35395ZM37.5435 0.227795H35.0266C34.2504 0.227795 33.6608 0.455197 33.3259 1.27192L28.4926 12.812H31.9068C31.9068 12.812 32.4689 11.2588 32.5898 10.9242C32.9643 10.9242 36.2857 10.9242 36.7675 10.9242C36.8609 11.366 37.1558 12.812 37.1558 12.812H40.1686L37.5435 0.227795V0.227795Z" fill="#1A1F71"/>
<path d="M11.4342 0.227795L8.24759 8.80911L7.89937 7.06872C7.31023 5.06053 5.46254 2.87868 3.40062 1.79381L6.31948 12.7988H9.76041L14.875 0.227795H11.4342V0.227795Z" fill="#1A1F71"/>
<path d="M5.28879 0.227795H0.0535585L0 0.482065C4.08381 1.52637 6.78843 4.04363 7.89964 7.06925L6.76157 1.28562C6.5742 0.481887 5.9984 0.254307 5.28879 0.227795Z" fill="#FAA61A"/>
</svg>
