<svg width="50" height="50" viewBox="0 0 50 50" fill="none" xmlns="http://www.w3.org/2000/svg">
<g filter="url(#filter0_d)">
<rect x="9" y="5" width="32" height="32" rx="16" fill="#FEFFFF"/>
<rect x="9" y="5" width="32" height="32" rx="16" stroke="#3483E4"/>
</g>
<path d="M19 17.6667H30.3333V15.8417C30.3333 15.4118 29.9325 15.0943 29.514 15.1928L19 17.6667Z" fill="white" stroke="#3483E4" stroke-width="1.33333" stroke-linecap="round" stroke-linejoin="round"/>
<path d="M31 27H19C18.6333 27 18.3333 26.7 18.3333 26.3333V18.3333C18.3333 17.9667 18.6333 17.6667 19 17.6667H31C31.3667 17.6667 31.6667 17.9667 31.6667 18.3333V26.3333C31.6667 26.7 31.3667 27 31 27Z" fill="#D6E6FA" stroke="#3483E4" stroke-width="1.33333" stroke-linecap="round" stroke-linejoin="round"/>
<path d="M31.6667 23.6667H29C28.2667 23.6667 27.6667 23.0667 27.6667 22.3333C27.6667 21.6 28.2667 21 29 21H31.6667V23.6667Z" fill="white" stroke="#3483E4" stroke-width="1.33333" stroke-linecap="round" stroke-linejoin="round"/>
<defs>
<filter id="filter0_d" x="0.5" y="0.5" width="49" height="49" filterUnits="userSpaceOnUse" color-interpolation-filters="sRGB">
<feFlood flood-opacity="0" result="BackgroundImageFix"/>
<feColorMatrix in="SourceAlpha" type="matrix" values="0 0 0 0 0 0 0 0 0 0 0 0 0 0 0 0 0 0 127 0"/>
<feOffset dy="4"/>
<feGaussianBlur stdDeviation="4"/>
<feColorMatrix type="matrix" values="0 0 0 0 0.203922 0 0 0 0 0.513726 0 0 0 0 0.894118 0 0 0 0.21 0"/>
<feBlend mode="normal" in2="BackgroundImageFix" result="effect1_dropShadow"/>
<feBlend mode="normal" in="SourceGraphic" in2="effect1_dropShadow" result="shape"/>
</filter>
</defs>
</svg>
