<svg width="68" height="69" viewBox="0 0 68 69" fill="none" xmlns="http://www.w3.org/2000/svg">
<g opacity="0.3" filter="url(#filter0_f)">
<path d="M34 10.8921C29.2533 10.8921 24.6131 12.2997 20.6663 14.9368C16.7195 17.574 13.6434 21.3223 11.8269 25.7077C10.0104 30.0931 9.53512 34.9187 10.4612 39.5743C11.3872 44.2298 13.673 48.5062 17.0294 51.8626C20.3859 55.2191 24.6623 57.5049 29.3178 58.4309C33.9734 59.357 38.799 58.8817 43.1844 57.0652C47.5698 55.2487 51.3181 52.1725 53.9553 48.2258C56.5924 44.279 58 39.6388 58 34.8921C57.9928 28.5291 55.4619 22.4288 50.9626 17.9295C46.4633 13.4301 40.363 10.8993 34 10.8921V10.8921ZM32.1539 23.8152C32.1539 23.3255 32.3484 22.856 32.6946 22.5097C33.0408 22.1635 33.5104 21.969 34 21.969C34.4896 21.969 34.9592 22.1635 35.3054 22.5097C35.6517 22.856 35.8462 23.3255 35.8462 23.8152V36.7382C35.8462 37.2279 35.6517 37.6974 35.3054 38.0437C34.9592 38.3899 34.4896 38.5844 34 38.5844C33.5104 38.5844 33.0408 38.3899 32.6946 38.0437C32.3484 37.6974 32.1539 37.2279 32.1539 36.7382V23.8152ZM34 47.8152C33.4523 47.8152 32.9169 47.6527 32.4615 47.3485C32.0061 47.0442 31.6512 46.6117 31.4416 46.1057C31.232 45.5997 31.1771 45.0429 31.284 44.5057C31.3908 43.9685 31.6546 43.4751 32.0419 43.0878C32.4291 42.7005 32.9226 42.4368 33.4598 42.3299C33.9969 42.2231 34.5537 42.2779 35.0597 42.4875C35.5658 42.6971 35.9982 43.052 36.3025 43.5074C36.6068 43.9628 36.7692 44.4982 36.7692 45.0459C36.7692 45.7804 36.4775 46.4847 35.9581 47.0041C35.4388 47.5234 34.7345 47.8152 34 47.8152Z" fill="url(#paint0_radial)"/>
</g>
<circle cx="33.0154" cy="28.0004" r="13.7846" fill="white"/>
<path d="M34 4C29.2533 4 24.6131 5.40757 20.6663 8.04473C16.7195 10.6819 13.6434 14.4302 11.8269 18.8156C10.0104 23.201 9.53512 28.0266 10.4612 32.6822C11.3872 37.3377 13.673 41.6141 17.0294 44.9706C20.3859 48.327 24.6623 50.6128 29.3178 51.5388C33.9734 52.4649 38.799 51.9896 43.1844 50.1731C47.5698 48.3566 51.3181 45.2805 53.9553 41.3337C56.5924 37.3869 58 32.7467 58 28C57.9928 21.637 55.4619 15.5367 50.9626 11.0374C46.4633 6.53805 40.363 4.00718 34 4V4ZM32.1539 16.9231C32.1539 16.4334 32.3484 15.9639 32.6946 15.6176C33.0408 15.2714 33.5104 15.0769 34 15.0769C34.4896 15.0769 34.9592 15.2714 35.3054 15.6176C35.6517 15.9639 35.8462 16.4334 35.8462 16.9231V29.8461C35.8462 30.3358 35.6517 30.8054 35.3054 31.1516C34.9592 31.4978 34.4896 31.6923 34 31.6923C33.5104 31.6923 33.0408 31.4978 32.6946 31.1516C32.3484 30.8054 32.1539 30.3358 32.1539 29.8461V16.9231ZM34 40.9231C33.4523 40.9231 32.9169 40.7607 32.4615 40.4564C32.0061 40.1521 31.6512 39.7196 31.4416 39.2136C31.232 38.7076 31.1771 38.1508 31.284 37.6136C31.3908 37.0764 31.6546 36.583 32.0419 36.1957C32.4291 35.8084 32.9226 35.5447 33.4598 35.4378C33.9969 35.331 34.5537 35.3858 35.0597 35.5954C35.5658 35.805 35.9982 36.1599 36.3025 36.6153C36.6068 37.0707 36.7692 37.6061 36.7692 38.1538C36.7692 38.8883 36.4775 39.5926 35.9581 40.112C35.4388 40.6313 34.7345 40.9231 34 40.9231Z" fill="url(#paint1_radial)"/>
<defs>
<filter id="filter0_f" x="0" y="0.89209" width="68" height="68" filterUnits="userSpaceOnUse" color-interpolation-filters="sRGB">
<feFlood flood-opacity="0" result="BackgroundImageFix"/>
<feBlend mode="normal" in="SourceGraphic" in2="BackgroundImageFix" result="shape"/>
<feGaussianBlur stdDeviation="5" result="effect1_foregroundBlur"/>
</filter>
<radialGradient id="paint0_radial" cx="0" cy="0" r="1" gradientUnits="userSpaceOnUse" gradientTransform="translate(21.2 15.6921) rotate(73.4956) scale(45.0564)">
<stop stop-color="#F9CE03"/>
<stop offset="1" stop-color="#F9B403"/>
</radialGradient>
<radialGradient id="paint1_radial" cx="0" cy="0" r="1" gradientUnits="userSpaceOnUse" gradientTransform="translate(21.2 8.8) rotate(73.4956) scale(45.0564)">
<stop stop-color="#F9CE03"/>
<stop offset="1" stop-color="#F9B403"/>
</radialGradient>
</defs>
</svg>
