<svg width="16" height="16" viewBox="0 0 16 16" fill="none" xmlns="http://www.w3.org/2000/svg">
<circle cx="8" cy="8" r="5" fill="#337FE6"/>
<path d="M8 1.49997C6.71442 1.49997 5.45772 1.88119 4.3888 2.59542C3.31988 3.30965 2.48676 4.32481 1.99479 5.51253C1.50282 6.70025 1.37409 8.00718 1.6249 9.26806C1.8757 10.5289 2.49477 11.6871 3.40381 12.5962C4.31285 13.5052 5.47104 14.1243 6.73192 14.3751C7.99279 14.6259 9.29973 14.4972 10.4874 14.0052C11.6752 13.5132 12.6903 12.6801 13.4046 11.6112C14.1188 10.5423 14.5 9.28555 14.5 7.99997C14.4981 6.27666 13.8126 4.62449 12.594 3.40593C11.3755 2.18737 9.72331 1.50192 8 1.49997V1.49997ZM8.75007 11.5002C8.75003 11.6991 8.67098 11.8899 8.53029 12.0306C8.38961 12.1712 8.19881 12.2502 7.99988 12.2502C7.80094 12.2502 7.61016 12.1712 7.4695 12.0305C7.32884 11.8898 7.24982 11.699 7.24982 11.5001C7.24982 11.3012 7.32884 11.1104 7.4695 10.9697C7.61016 10.829 7.80094 10.75 7.99988 10.75C8.19881 10.75 8.38961 10.829 8.53029 10.9696C8.67098 11.1103 8.75003 11.301 8.75007 11.5V11.5002ZM9.76783 8.76779C9.42191 9.11553 8.98075 9.35301 8.5 9.45029V9.49997C8.5 9.63258 8.44733 9.75975 8.35356 9.85352C8.25979 9.94729 8.13261 9.99997 8 9.99997C7.8674 9.99997 7.74022 9.94729 7.64645 9.85352C7.55268 9.75975 7.5 9.63258 7.5 9.49997V8.99997C7.50001 8.86736 7.55269 8.74019 7.64646 8.64642C7.74022 8.55266 7.8674 8.49998 8 8.49997C8.29666 8.49995 8.58664 8.41197 8.83329 8.24716C9.07994 8.08234 9.27218 7.84808 9.38569 7.57401C9.49921 7.29993 9.52891 6.99836 9.47103 6.70741C9.41315 6.41645 9.2703 6.1492 9.06054 5.93944C8.85077 5.72967 8.58352 5.58682 8.29257 5.52894C8.00162 5.47106 7.70004 5.50076 7.42597 5.61428C7.1519 5.7278 6.91764 5.92003 6.75282 6.16668C6.588 6.41333 6.50002 6.70332 6.5 6.99997C6.5 7.13258 6.44733 7.25976 6.35356 7.35352C6.25979 7.44729 6.13261 7.49997 6 7.49997C5.8674 7.49997 5.74022 7.44729 5.64645 7.35352C5.55268 7.25976 5.5 7.13258 5.5 6.99997C5.50002 6.58885 5.60143 6.18408 5.79524 5.82151C5.98906 5.45894 6.26929 5.14977 6.61113 4.92137C6.95297 4.69297 7.34586 4.5524 7.755 4.51211C8.16414 4.47182 8.5769 4.53306 8.95673 4.69039C9.33655 4.84772 9.67171 5.09629 9.93253 5.41409C10.1933 5.73189 10.3718 6.10911 10.452 6.51232C10.5322 6.91554 10.5117 7.33232 10.3924 7.72574C10.273 8.11916 10.0585 8.47708 9.76783 8.76779V8.76779Z" fill="#E9F1FC"/>
</svg>
